<svg width="24" height="25" viewBox="0 0 24 25" fill="none" xmlns="http://www.w3.org/2000/svg">
<path d="M21.4566 8.35737C21.29 8.29016 21.1125 8.2559 20.9334 8.25641H20.9147C19.9692 8.27083 18.9089 9.179 18.3525 10.5526C17.6855 12.1958 17.9925 13.8771 19.0434 14.3093C19.2099 14.3765 19.3872 14.4108 19.5661 14.4103C20.5163 14.4103 21.5911 13.4968 22.1522 12.1141C22.8145 10.4708 22.5028 8.78958 21.4566 8.35737ZM15.3563 14.7699C14.0531 12.5521 13.4906 11.7179 12 11.7179C10.5094 11.7179 9.94219 12.5574 8.63907 14.7699C7.52344 16.6622 5.26876 16.8199 4.70626 18.4271C4.59214 18.7215 4.53483 19.0358 4.53751 19.3526C4.53751 20.6598 5.51251 21.7179 6.71251 21.7179C8.20313 21.7179 10.2328 20.4973 12.0047 20.4973C13.7766 20.4973 15.7969 21.7179 17.2875 21.7179C18.4875 21.7179 19.4578 20.6603 19.4578 19.3526C19.4589 19.0355 19.4 18.7212 19.2844 18.4271C18.7219 16.8141 16.4719 16.6622 15.3563 14.7699ZM9.02391 9.60256C9.08668 9.60261 9.14936 9.59779 9.21141 9.58814C10.2994 9.42612 10.9786 7.87997 10.732 6.13381C10.5 4.48766 9.52594 3.25641 8.50735 3.25641C8.44458 3.25636 8.3819 3.26118 8.31985 3.27083C7.23188 3.43285 6.55266 4.979 6.79922 6.72516C7.03126 8.3665 8.00532 9.60256 9.02391 9.60256ZM17.1994 6.72516C17.4459 4.979 16.7667 3.43285 15.6788 3.27083C15.6167 3.26118 15.554 3.25636 15.4913 3.25641C14.4727 3.25641 13.5005 4.48766 13.268 6.13381C13.0214 7.87997 13.7006 9.42612 14.7886 9.58814C14.8507 9.59779 14.9133 9.60261 14.9761 9.60256C15.9947 9.60256 16.9688 8.3665 17.1994 6.72516ZM4.95797 14.3093C6.00751 13.8766 6.31407 12.1939 5.64797 10.5526C5.08735 9.16987 4.01344 8.25641 3.06469 8.25641C2.88582 8.2559 2.70848 8.29016 2.54204 8.35737C1.49251 8.79006 1.18594 10.4728 1.85204 12.1141C2.41266 13.4968 3.48657 14.4103 4.43532 14.4103C4.61419 14.4108 4.79154 14.3765 4.95797 14.3093Z" stroke="#FEE8E8" stroke-width="1.25" stroke-miterlimit="10"/>
</svg>
